<?xml version="1.0" encoding="utf-8"?>
<!-- Generator: Adobe Illustrator 17.1.0, SVG Export Plug-In . SVG Version: 6.00 Build 0)  -->
<!DOCTYPE svg PUBLIC "-//W3C//DTD SVG 1.1//EN" "http://www.w3.org/Graphics/SVG/1.1/DTD/svg11.dtd">
<svg version="1.1" id="Layer_1" xmlns="http://www.w3.org/2000/svg" xmlns:xlink="http://www.w3.org/1999/xlink" x="0px" y="0px"
	 viewBox="0 95.2 283.5 94.1" enable-background="new 0 95.2 283.5 94.1" xml:space="preserve">
<g>
	<path fill="#61C0E2" d="M46.1,95.2C20.6,95.2,0,115.8,0,141.3s20.6,46.1,46.1,46.1s46.1-20.6,46.1-46.1S71.6,95.2,46.1,95.2z
		 M46.1,181.6c-22.2,0-40.3-18.1-40.3-40.3S23.9,101,46.1,101s40.3,18.1,40.3,40.3S68.3,181.6,46.1,181.6z"/>
	<path fill="#FFFFFF" d="M146.6,138c-6.1,0-11.5,3.2-14.5,7.8c-3.2-4.8-8.5-7.8-14.5-7.8c-9.6,0-17.4,7.8-17.4,17.4v32h5.9v-32
		c0-6.5,5.2-11.6,11.6-11.6c6.5,0,11.6,5.2,11.6,11.6l0,0v32l0,0h5.9l0,0v-32l0,0c0-6.5,5.2-11.6,11.6-11.6
		c6.5,0,11.6,5.2,11.6,11.6v32h5.9v-32C164.1,145.8,156.1,138,146.6,138z"/>
	<rect x="175.6" y="139" fill="#FFFFFF" width="5.9" height="48.5"/>
	<circle fill="#61C0E2" cx="178.6" cy="123.4" r="5.9"/>
	<path fill="#FFFFFF" d="M280.4,166.2h2.9c0.1-1,0.2-2,0.2-3c0-13.8-11.2-25-25-25c-13.8,0-25,11.2-25,25c0,13.8,11.2,25,25,25
		c9.9,0,18.4-5.7,22.4-14h-7c-3.4,4.9-9.1,8.1-15.5,8.1c-9.5,0-17.3-7-18.8-16h37.6C277.4,166.2,280.4,166.2,280.4,166.2z
		 M239.7,160.2c1.5-9,9.3-16,18.8-16c9.5,0,17.3,7,18.8,16C277.2,160.2,239.7,160.2,239.7,160.2z"/>
	<path fill="#FFFFFF" d="M207.8,188.1c-7.7-0.5-14.5-4.1-17.3-9.3l5.2-2.9c1.8,3.3,6.8,5.9,12.4,6.2c7.4,0.5,12.9-2.7,13.2-7.1
		c0.2-3.3-5.1-6-10.9-8.3c-0.7-0.2-1.5-0.6-2.2-0.9c-0.7-0.2-1.5-0.6-2.2-0.9c-7.6-3-16.1-6.6-15.6-14.1c0.5-7.8,9.5-13.4,20.6-12.7
		c7.7,0.5,14.4,4.1,17.3,9.3l-5.2,2.9c-1.8-3.3-6.8-5.7-12.4-6.2c-7.4-0.5-12.9,2.7-13.2,7.1c-0.2,3.3,5.1,6,10.9,8.3
		c0.7,0.2,1.5,0.6,2.2,0.9c0.7,0.2,1.5,0.6,2.2,0.9c7.6,3,16.1,6.6,15.6,14.3C227.8,183.4,218.8,188.9,207.8,188.1z"/>
</g>
<g>
	<path fill="#E0E0E0" d="M201.9,117.5c-1.8,0-3.4,0.9-4.5,2.2v-2.2h-1.2v15.9h1.2v-6.7c1.1,1.3,2.7,2.2,4.5,2.2
		c3.2,0,5.7-2.6,5.7-5.7S205,117.5,201.9,117.5z M201.9,127.8c-2.4,0-4.5-2-4.5-4.5s2.1-4.5,4.5-4.5c2.4,0,4.5,2,4.5,4.5
		S204.3,127.8,201.9,127.8z"/>
	<path fill="#E0E0E0" d="M216.9,117.9c-2.6-0.9-5.7,0.1-7.3,2.1l1,0.7c1.2-1.6,3.9-2.4,6-1.7c1,0.4,2.1,1.1,2.1,2.8v0.4
		c-0.9-0.7-2-1.2-3.4-1.2c-0.7,0-1.5,0.1-2.2,0.4c-1.5,0.5-2.7,1.5-3.2,2.7c-0.4,0.9-0.4,1.8,0,2.6c0.6,1.5,2.2,2.3,4.1,2.3
		c0.7,0,1.5-0.1,2.2-0.4c1-0.4,1.8-1,2.4-1.6v2h1.2v-7.2C219.8,120,218.7,118.5,216.9,117.9z M218.2,125.4c-0.4,0.9-1.3,1.7-2.4,2.1
		c-0.6,0.2-1.1,0.2-1.7,0.2l0,0c-1.5,0-2.7-0.6-3-1.6c-0.2-0.5-0.2-1.1,0-1.6c0.4-0.9,1.3-1.7,2.4-2.1c0.6-0.2,1.1-0.2,1.7-0.2
		c1.5,0,2.7,0.6,3,1.6C218.4,124.3,218.4,124.8,218.2,125.4z"/>
	<path fill="#E0E0E0" d="M245.8,117.5c-1.5,0-2.7,0.7-3.4,1.8c-0.7-1.1-2-1.8-3.4-1.8c-2.2,0-4,1.8-4,4v7.4h1.2v-7.4
		c0-1.5,1.2-2.8,2.8-2.8s2.8,1.2,2.8,2.8v7.4h1.2v-7.4c0-1.5,1.2-2.8,2.8-2.8c1.6,0,2.8,1.2,2.8,2.8v7.4h1.2v-7.4
		C249.8,119.3,248,117.5,245.8,117.5z"/>
	<path fill="#E0E0E0" d="M270,117.5c-3,0-5.5,2.4-5.5,5.5v6h1.2v-6c0-2.3,2-4.3,4.3-4.3c2.3,0,4.3,2,4.3,4.3v6h1.2v-6
		C275.5,120.1,273.1,117.5,270,117.5z"/>
	<path fill="#E0E0E0" d="M257.1,117.5c-3.2,0-5.7,2.6-5.7,5.7s2.6,5.7,5.7,5.7c2.4,0,4.8-1.7,5.5-4h-1.3c-0.7,1.7-2.3,2.8-4.1,2.8
		c-2.3,0-4.1-1.7-4.5-3.9h10.2v-0.6C262.8,120.1,260.3,117.5,257.1,117.5z M252.6,122.6c0.2-2.2,2.2-3.9,4.5-3.9s4.1,1.7,4.5,3.9
		H252.6z"/>
	<path fill="#E0E0E0" d="M227.2,127.5l-4.3-9.9h-1.3l4.9,11.2l-1.6,3.3c-0.5,0.9-1.6,1.1-2.4,0.6l-0.6,1.1c0.5,0.2,1,0.4,1.5,0.4
		c1.1,0,2.1-0.5,2.7-1.6l7.4-15.1h-1.3L227.2,127.5z"/>
	<path fill="#E0E0E0" d="M283.5,116.9v-1.2H280v-2.4h-0.5c-0.2,0.4-0.5,0.7-0.7,1v1.5h-1.5c-0.4,0.2-0.6,0.5-1,0.7v0.5h2.4v9.3
		c0,1.7,1.3,3,3,3V128c-1,0-1.8-0.9-1.8-1.8v-9.3C279.9,116.9,283.5,116.9,283.5,116.9z"/>
</g>
</svg>
