<?xml version="1.0" encoding="utf-8"?>
<!-- Generator: Adobe Illustrator 17.1.0, SVG Export Plug-In . SVG Version: 6.00 Build 0)  -->
<!DOCTYPE svg PUBLIC "-//W3C//DTD SVG 1.1//EN" "http://www.w3.org/Graphics/SVG/1.1/DTD/svg11.dtd">
<svg version="1.1" id="Layer_1" xmlns="http://www.w3.org/2000/svg" xmlns:xlink="http://www.w3.org/1999/xlink" x="0px" y="0px"
	 viewBox="0 266.2 512 167.8" enable-background="new 0 266.2 512 167.8" xml:space="preserve">
<g>
	<path fill="#61C0E2" d="M83.3,266.2C37.2,266.2,0,303.4,0,349.5s37.2,83.3,83.3,83.3s83.3-37.2,83.3-83.3S129.3,266.2,83.3,266.2z
		 M83.3,422.3c-40.1,0-72.8-32.7-72.8-72.8s32.7-72.8,72.8-72.8s72.8,32.7,72.8,72.8S123.3,422.3,83.3,422.3z"/>
	<path fill="#FFFFFF" d="M264.8,343.5c-11,0-20.8,5.8-26.2,14.1c-5.8-8.7-15.4-14.1-26.2-14.1c-17.3,0-31.4,14.1-31.4,31.4v57.8
		h10.7v-57.8c0-11.7,9.4-20.9,20.9-20.9c11.7,0,20.9,9.4,20.9,20.9l0,0v57.8l0,0h10.7l0,0v-57.8l0,0c0-11.7,9.4-20.9,20.9-20.9
		c11.7,0,20.9,9.4,20.9,20.9v57.8h10.7v-57.8C296.4,357.6,281.9,343.5,264.8,343.5z"/>
	<rect x="317.1" y="345.3" fill="#FFFFFF" width="10.7" height="87.6"/>
	<circle fill="#FFFFFF" cx="322.6" cy="317.2" r="10.7"/>
	<path fill="#FFFFFF" d="M506.4,394.5h5.2c0.2-1.8,0.4-3.6,0.4-5.4c0-24.9-20.2-45.1-45.1-45.1c-24.9,0-45.1,20.2-45.1,45.1
		c0,24.9,20.2,45.1,45.1,45.1c17.9,0,33.2-10.3,40.5-25.3h-12.6c-6.1,8.8-16.4,14.6-28,14.6c-17.2,0-31.2-12.6-34-28.9h67.9
		C501,394.5,506.4,394.5,506.4,394.5z M432.9,383.6c2.7-16.3,16.8-28.9,34-28.9c17.2,0,31.2,12.6,34,28.9
		C500.6,383.6,432.9,383.6,432.9,383.6z"/>
	<path fill="#FFFFFF" d="M375.3,434c-13.9-0.9-26.2-7.4-31.2-16.8l9.4-5.2c3.3,6,12.3,10.7,22.4,11.2c13.4,0.9,23.3-4.9,23.8-12.8
		c0.4-6-9.2-10.8-19.7-15c-1.3-0.4-2.7-1.1-4-1.6c-1.3-0.4-2.7-1.1-4-1.6c-13.7-5.4-29.1-11.9-28.2-25.5
		c0.9-14.1,17.2-24.2,37.2-22.9c13.9,0.9,26,7.4,31.2,16.8l-9.4,5.2c-3.3-6-12.3-10.3-22.4-11.2c-13.4-0.9-23.3,4.9-23.8,12.8
		c-0.4,6,9.2,10.8,19.7,15c1.3,0.4,2.7,1.1,4,1.6c1.3,0.4,2.7,1.1,4,1.6c13.7,5.4,29.1,11.9,28.2,25.8
		C411.4,425.5,395.2,435.4,375.3,434z"/>
</g>
</svg>
